<svg xmlns="http://www.w3.org/2000/svg" viewBox="1535 763 24.001 22.001">
  <defs>
    <style>
      .cls-1 {
        fill: #fff;
      }
    </style>
  </defs>
  <path id="chat_weiß" class="cls-1" d="M10,3c4.411,0,8,2.849,8,6.35,0,3.035-3.029,6.311-7.925,6.311A14.275,14.275,0,0,1,6.357,15.1a10.045,10.045,0,0,1-3.006,1.373,8.678,8.678,0,0,0,.331-3.184A5.678,5.678,0,0,1,2,9.352C2,5.851,5.589,3,10,3Zm0-2C4.719,1,0,4.526,0,9.352a7.366,7.366,0,0,0,1.705,4.7A13.066,13.066,0,0,1,.044,19.359a23.973,23.973,0,0,0,6.649-2.115,14.215,14.215,0,0,0,3.382.421c5.9,0,9.925-4.038,9.925-8.313C20,4.5,15.249,1,10,1ZM21.535,12.174a9.229,9.229,0,0,1-.6,1.416c1.677,1.262,2.257,3.226.464,5.365a5.8,5.8,0,0,0,.138,1.865,5.953,5.953,0,0,1-1.665-.813c-2.127.519-4.265.7-6.089-.855a13.482,13.482,0,0,1-1.74.364c1.513,1.877,4.3,2.9,7.577,2.1A15.754,15.754,0,0,0,23.971,23a8.6,8.6,0,0,1-1.088-3.479,4.893,4.893,0,0,0-1.348-7.348ZM6.5,8.411A1.071,1.071,0,1,0,7.571,9.482,1.071,1.071,0,0,0,6.5,8.411Zm3.5,0a1.071,1.071,0,1,0,1.071,1.071A1.071,1.071,0,0,0,10,8.411Zm3.5,0a1.071,1.071,0,1,0,1.071,1.071A1.071,1.071,0,0,0,13.5,8.411Z" transform="translate(1535 762)"/>
</svg>
