<svg xmlns="http://www.w3.org/2000/svg" viewBox="1500 737 24 18">
  <defs>
    <style>
      .cls-1 {
        fill: #fff;
      }
    </style>
  </defs>
  <path id="handshake_weiß" class="cls-1" d="M19.523,5.175a7.842,7.842,0,0,1-3.888-1.311A5.177,5.177,0,0,0,13.117,3c-1.275,0-1.747.658-2.552,1.564-2.052-1.593-3.513-.907-4.808-.293A5.751,5.751,0,0,1,3.17,5H0v7.91a22.733,22.733,0,0,1,3.287.464A2.312,2.312,0,0,0,4.921,16.8a2.348,2.348,0,0,0,1.718,1.286,2.321,2.321,0,0,0,1.709,1.279,2.368,2.368,0,0,0,3.188,1.07A2.466,2.466,0,0,0,13.1,21a2.355,2.355,0,0,0,2.145-1.337,2.373,2.373,0,0,0,1.664-1.3,2.337,2.337,0,0,0,1.648-1.286A2.3,2.3,0,0,0,20.248,13.9,16.2,16.2,0,0,1,24,12.8V4.937c-.961.059-3.507.218-4.477.238ZM4.8,15.16a.83.83,0,0,1-.1-1.21l.782-.959a.936.936,0,0,1,1.265-.179.83.83,0,0,1,.1,1.211l-.782.956A.94.94,0,0,1,4.8,15.16Zm1.714,1.282a.818.818,0,0,1-.111-1.2l.79-.969a.94.94,0,0,1,1.265-.181.829.829,0,0,1,.1,1.21l-.79.969A.923.923,0,0,1,6.518,16.442Zm1.714,1.284a.831.831,0,0,1-.1-1.213l.78-.956a.939.939,0,0,1,1.266-.182.831.831,0,0,1,.1,1.211l-.781.958a.939.939,0,0,1-1.265.182Zm3.76.14-.783.963a.938.938,0,0,1-1.266.181.83.83,0,0,1-.1-1.21l.785-.964a.938.938,0,0,1,1.265-.178A.824.824,0,0,1,11.992,17.866Zm1.642,1.422a.864.864,0,0,1-.531.177.948.948,0,0,1-.4-.095l.454-.559A2.331,2.331,0,0,0,13.6,18l.124.11a.8.8,0,0,1-.086,1.177Zm4.968-3.87a.925.925,0,0,1-1.24-.146l-2.5-2.141a.2.2,0,0,0-.266.31l2.433,2.089a.8.8,0,0,1-.088,1.175.92.92,0,0,1-1.242-.146l-1.915-1.678a.206.206,0,0,0-.271.309l1.868,1.642a.789.789,0,0,1-.1,1.166.908.908,0,0,1-1.231-.137l-.365-.325a2.3,2.3,0,0,0-1.924-2.516,2.321,2.321,0,0,0-1.712-1.28,2.321,2.321,0,0,0-1.712-1.282A2.383,2.383,0,0,0,4.7,11.681,17.477,17.477,0,0,0,2,11.108V7H3.17a7.578,7.578,0,0,0,3.443-.922c1.087-.515,1.609-.754,2.581-.046A10.186,10.186,0,0,1,7.227,7.621a1.447,1.447,0,0,0-.672,1.668,2.753,2.753,0,0,0,2.767,1.758c1.981,0,2.935-1.2,3.935-1.766,1.493,1.436,3.93,3.644,5.47,5.026a.789.789,0,0,1-.125,1.111ZM22,11.2a11.855,11.855,0,0,0-2.707.926c-1.085-.979-3.529-3.193-4.4-4.063a2.053,2.053,0,0,0-3.093-.2c-.79.636-2.018,1.447-2.971,1.1a22.664,22.664,0,0,0,3.692-3.6c.313-.354.527-.592,1.5-.09l.678.355c1.725.908,3.07,1.627,5.132,1.535.62-.025,1.487-.071,2.166-.11V11.2Z" transform="translate(1500 734)"/>
</svg>
